<svg width="316" height="281" viewBox="0 0 316 281" fill="none" xmlns="http://www.w3.org/2000/svg">
<g clip-path="url(#clip0_1603_545)">
<mask id="mask0_1603_545" style="mask-type:luminance" maskUnits="userSpaceOnUse" x="0" y="0" width="316" height="281">
<path d="M315.539 0.342773H0.539062V280.343H315.539V0.342773Z" fill="white"/>
</mask>
<g mask="url(#mask0_1603_545)">
<path d="M162.539 230.343C215.559 230.343 258.539 233.03 258.539 236.343C258.539 239.656 215.559 242.343 162.539 242.343C109.519 242.343 66.5391 239.656 66.5391 236.343C66.5391 233.03 109.519 230.343 162.539 230.343Z" fill="#F1F1F1"/>
<path d="M187.687 82.915C185.551 82.915 183.557 83.1845 181.692 83.6631C182.297 85.7541 182.961 87.8261 183.629 89.8937C184.91 89.5783 186.258 89.4006 187.687 89.4006C193.094 89.4006 197.494 93.7649 197.494 99.1288C197.494 104.492 193.094 108.857 187.687 108.857H166.095C168.44 102.911 173.909 92.2855 183.629 89.8937C182.961 87.8261 182.297 85.7541 181.692 83.6631C171.198 86.3613 164.899 95.8369 161.538 102.955C159.222 98.0509 155.511 92.0294 149.996 87.8742C148.574 89.5269 147.192 91.2199 145.898 93.0034C151.659 97.2782 155.199 104.387 156.973 108.857H135.389C129.984 108.857 125.584 104.492 125.584 99.1288C125.584 93.7649 129.984 89.4006 135.389 89.4006C139.503 89.4006 142.984 90.8408 145.898 93.0034C147.192 91.2199 148.574 89.5269 149.996 87.8742C146.085 84.9255 141.266 82.915 135.389 82.915C126.379 82.915 119.047 90.1889 119.047 99.1288C119.047 108.069 126.379 115.343 135.389 115.343H161.538H187.687C196.699 115.343 204.029 108.069 204.029 99.1288C204.029 90.1889 196.699 82.915 187.687 82.915Z" fill="#FFD465"/>
<path d="M222.712 114.343H100.365C97.1461 114.343 94.5391 116.939 94.5391 120.143V137.543C94.5391 140.747 97.1461 143.343 100.365 143.343H222.712C225.931 143.343 228.538 140.747 228.538 137.543V120.143C228.538 116.939 225.931 114.343 222.712 114.343Z" fill="#EC5C50"/>
<path d="M217.539 143.343H106.539V230.531C106.539 233.741 109.153 236.343 112.381 236.343H211.697C214.925 236.343 217.539 233.741 217.539 230.531V143.343Z" fill="#00B494"/>
<path d="M146.539 114.343H175.539V143.343H146.539V114.343Z" fill="#FFD465"/>
<path d="M146.539 143.343H175.539V236.593H146.539V143.343Z" fill="#DEB345"/>
</g>
</g>
<defs>
<clipPath id="clip0_1603_545">
<rect width="315" height="280" fill="white" transform="translate(0.539062 0.342773)"/>
</clipPath>
</defs>
</svg>
